<svg xmlns="http://www.w3.org/2000/svg" width="215.772" height="29.424" viewBox="0 0 215.772 29.424">
  <g id="Group_352" data-name="Group 352" transform="translate(-582.851 -21.798)">
    <path id="Path_1" data-name="Path 1" d="M24.778,12.776a3.223,3.223,0,0,1-.516,1.032,2.985,2.985,0,0,1-.774.9L23.1,12a28.124,28.124,0,0,0-1.032-3.1,3.211,3.211,0,0,0-.387.9l-.387.774a17.2,17.2,0,0,0-1.549-2.839,30.313,30.313,0,0,0-1.807-2.452,5.674,5.674,0,0,1-.129,1.161c-.129.516-.258,1.291-.258,1.291A14.993,14.993,0,0,0,15.357,4.9c-1.032-.774-2.968-2.323-2.968-2.323V3.742A1.758,1.758,0,0,1,12,4.517a14.559,14.559,0,0,0-1.549-2.194C9.679,1.678,8.13.516,8.13.516a6.91,6.91,0,0,1,0,1.678,3.814,3.814,0,0,1-.258,1.161A18.427,18.427,0,0,0,5.42,1.291,17.459,17.459,0,0,0,2.194,0V2.065A8.93,8.93,0,0,0,2.71,4.388a1.756,1.756,0,0,1-.9,0A.968.968,0,0,1,1.032,4s.258,1.549.516,2.452c.258,1.032.774,2.581.774,2.581a2.91,2.91,0,0,1-.9-.258,9.335,9.335,0,0,1-.9-.516s.516,2.323.9,3.355,1.032,2.452,1.032,2.452a4.151,4.151,0,0,1-1.032-.129A6.848,6.848,0,0,1,0,13.55a12.419,12.419,0,0,0,.9,2.71,21.909,21.909,0,0,0,1.42,2.065s0,.258-.516.258a1.873,1.873,0,0,1-.774-.129,8.725,8.725,0,0,0,1.032,2.323,5.643,5.643,0,0,0,1.807,1.678.894.894,0,0,1-.516.387,3.294,3.294,0,0,1-1.161,0,18.3,18.3,0,0,0,2.323,1.807,10.425,10.425,0,0,0,1.807.9,1.546,1.546,0,0,1-.516.516,1.537,1.537,0,0,1-.774.258A5.7,5.7,0,0,0,8,27.746a6.883,6.883,0,0,0,2.839.129s.129,0-.387.645a4.6,4.6,0,0,1-.9.9h5.807c.258,0,.516-.129.774-.129a.474.474,0,0,0,.387-.129h.129c.129,0,.258,0,.258-.129h.129c.129,0,.129,0,.258-.129a2.393,2.393,0,0,1,.9-.258,25.139,25.139,0,0,0-.774-2.968,9.939,9.939,0,0,1-4.517-.129c-1.032-.387-3.226-1.032-3.872-1.678a20.763,20.763,0,0,0,5.033,1.161,8.235,8.235,0,0,0,3.1-.129c-.258-.645-.516-1.161-.774-1.807A22.425,22.425,0,0,0,15.1,20.648a8.844,8.844,0,0,1-4.517-.129c-1.42-.516-3.1-1.161-3.613-1.807a13.177,13.177,0,0,0,4.646,1.42,12.06,12.06,0,0,0,3.1-.258c-.516-.774-1.032-1.678-1.549-2.452-.258-.516-.645-1.032-.9-1.549a6.578,6.578,0,0,1-3.226-.645,9.071,9.071,0,0,1-2.323-1.807,11.5,11.5,0,0,0,3.1,1.678,5.587,5.587,0,0,0,2.065.129A76.152,76.152,0,0,0,6.323,7.614a73.592,73.592,0,0,1,7.227,8.259,8.751,8.751,0,0,0,1.032-2.452A14.171,14.171,0,0,0,14.841,8.9a10.388,10.388,0,0,1,.387,3.742,8.917,8.917,0,0,1-1.161,3.872c.9,1.42,1.807,2.839,2.581,4.259A7.994,7.994,0,0,0,17.938,18.2a21.8,21.8,0,0,0,.774-5.291,15.714,15.714,0,0,1,.129,4.388,11.728,11.728,0,0,1-1.678,4.259c.129.258.258.387.258.645.516,1.161,1.032,2.323,1.42,3.484a19.531,19.531,0,0,0,1.807-2.71,13.159,13.159,0,0,0,1.42-4.9c.258.9-.258,3.1-.645,4.388a16.333,16.333,0,0,1-2.194,4.13l.387,1.549a5.611,5.611,0,0,0,.9-.516,24696.616,24696.616,0,0,0,.258-.258c.129-.129.258-.129.387-.258,4.13-3.484,3.613-14.325,3.613-14.325Z" transform="translate(582.851 21.798)" fill="#87b04a"/>
    <g id="Group_1" data-name="Group 1" transform="translate(611.758 26.96)">
      <path id="Path_2" data-name="Path 2" d="M41.37,10.036l-7.1,9.421H33.5L26.53,10.036V25.781H22.4V4.1h4.646l6.84,9.292L40.725,4.1h4.646V25.781h-4.13V10.036Z" transform="translate(-22.4 -3.971)" fill="#2b2d7b"/>
      <path id="Path_3" data-name="Path 3" d="M59.151,21.651H47.794l-1.807,4.13H41.6L51.15,4.1h4.517l9.679,21.681H60.829ZM53.473,8.617l-4,9.292h8Z" transform="translate(-16.822 -3.971)" fill="#2b2d7b"/>
      <path id="Path_4" data-name="Path 4" d="M68.182,13l5.807-8.9h4.775v.129L70.118,16.747v8.9h-4.13v-8.9L57.6,4.229V4.1h4.9Z" transform="translate(-12.174 -3.971)" fill="#2b2d7b"/>
      <path id="Path_5" data-name="Path 5" d="M91.8,9.907a4.839,4.839,0,0,1-3.484,4.646,5.588,5.588,0,0,1,4.259,5.42c0,4.517-4.13,5.678-7.872,5.678H75.8V4.1h8.9c3.613,0,7.1,1.678,7.1,5.807Zm-14.325,4h7.485c2.581,0,5.291-.774,5.291-3.872S87.415,5.52,84.7,5.52H77.478Zm0,10.195H84.7c2.71,0,6.194-.645,6.194-4.13,0-3.355-3.1-4.646-6.065-4.646H77.349V24.1Z" transform="translate(-6.887 -3.971)" fill="#2b2d7b"/>
      <path id="Path_6" data-name="Path 6" d="M93.578,14.037h12.647v1.549H93.578V24.1h13.679v1.549H91.9V4.1h14.97V5.649H93.578Z" transform="translate(-2.21 -3.971)" fill="#2b2d7b"/>
      <path id="Path_7" data-name="Path 7" d="M124.358,25.781l-2.323-5.291H109.13l-2.323,5.291H105L114.679,4.1h1.807l9.679,21.681Zm-2.968-6.969L115.582,5.649l-5.807,13.163Z" transform="translate(1.596 -3.971)" fill="#2b2d7b"/>
      <path id="Path_8" data-name="Path 8" d="M138.848,4.1V17.521c0,11.356-16.648,11.356-16.648,0V4.1h1.678V17.521a6.654,6.654,0,1,0,13.292,0V4.1Z" transform="translate(6.592 -3.971)" fill="#2b2d7b"/>
      <path id="Path_9" data-name="Path 9" d="M145.272,5.52H137.4V4.1h17.293V5.649h-7.872V25.781h-1.678V5.52Z" transform="translate(11.008 -3.971)" fill="#2b2d7b"/>
      <path id="Path_10" data-name="Path 10" d="M161.317,17.034,152.8,4h1.936l7.356,11.356L169.448,4h1.936l-8.517,13.034V25.68h-1.678V17.034Z" transform="translate(15.482 -4)" fill="#2b2d7b"/>
    </g>
  </g>
</svg>
